<?xml version="1.0" encoding="utf-8"?>
<!-- Generator: Adobe Illustrator 23.1.0, SVG Export Plug-In . SVG Version: 6.00 Build 0)  -->
<svg version="1.1" id="Layer_1" xmlns="http://www.w3.org/2000/svg" xmlns:xlink="http://www.w3.org/1999/xlink" x="0px" y="0px"
	 viewBox="0 0 86.62 72.07" style="enable-background:new 0 0 86.62 72.07;" xml:space="preserve">
<style type="text/css">
	.st0{fill:#FFFFFF;}
</style>
<title>ds-logo</title>
<path class="st0" d="M15.36,71.99l-0.22-1L15,70.85l-0.22,0.21l-0.21-0.07l0.1-3.15l-0.43-0.72h-0.32l-0.07,0.07l-0.36,2.45
	l-0.07,0.51l-0.15-0.16l-0.14-0.5v-0.65l-0.07-1.8l-0.15-0.36l-0.14-0.14l-0.29-0.44v-0.28l0.07-0.15l0.22-0.21V65.3l-0.29-0.86
	l-0.07-0.15l-0.58-0.31l-0.16-0.11h-0.34l-1.08-0.72l-0.72-0.93l-0.22-0.8v-0.07l-0.07-0.07l0.14-0.43L9.31,60.7l0.22-0.43H9.6
	l0.14,0.07l0.08,0.08l0.5,1l0.14,0.15l0.08,0.14l1.29,0.72l0.15,0.15l0.57,0.21l0.12-0.07l0.44-0.22l0.07-0.21l0.21-0.58v-0.36
	l0.28-1.22l0.11-0.15v-0.14l0.07-0.22l0.82-3.81v-0.58l-0.29-5.33v-0.57l0.36-2.88l0.08-0.22v-0.14l0.79-4v-0.22l0.07-0.14
	l0.07-0.22l0.92-3.53l0.07-0.14v-0.46l0.86-3l0.07-0.29l0.08-0.07l0.07-0.29l0.72-2.23V31.3l0.14-0.36l1.37-4l0.07-0.22l0.07-0.07
	l0.15-0.22l2.16-5.69l0.07-0.21l0.07-0.07l0.07-0.22l1.52-4.18l0.07-0.21V15.7l0.14-0.21l0.78-2.5l0.15-0.29l0.07-0.29l0.65-2.16
	V9.81l-0.36-0.07l-0.87,1.44l-0.21,0.14l-0.36-0.79l0.07-0.79l0.65-0.87l0.14-0.36l0.22-0.07l1.94-2.81l0.58-2.23l0.07-0.21
	l0.65-0.8l0.72-0.41l0.29,0.08l0.5-0.08l0.29-0.21h0.26l0.8-0.15h0.07l0.72-0.43l0.21-0.14l0.36-0.22l0.44-0.57l0.07-0.15l0.67-0.13
	l0.14,0.36v0.14l0.15,0.22l0.07,1.73l0.07,0.14l0.36,0.36l3.38-0.29l0.15-0.07h0.21l0.15,0.07l2.66,0.34l0.22-0.07L42,3.13
	l0.22,0.08l0.79,0.21l0.36,0.22h0.14l2.67,1.22l0.21,0.15l1.15,0.43l0.22,0.07l0.14,0.07l2.16,1.8l0.08,0.07l1.65,1.8l0.07,0.22
	l0.08,0.07l0.07,0.22l1.87,2.59l1.15,2.16l0.15,0.14v0.22l0.07,0.22l0.57,1.65l0.08,0.22l0.07,0.14l0.57,2.67l0.08,0.14l-0.08,0.22
	l0.44,2.95l-0.22,4.17l-0.07,0.22l-0.36,2.59v0.29l-0.07,0.14l-0.08,0.29l-0.36,1.51l-0.21,0.51l-0.58,1.94l-0.14,0.51l-0.79,2
	l-0.08,0.15l-0.07,0.21v0.15l-1.08,2.36l-0.36,0.65l-0.84,1.73l-0.15,0.14l-0.07,0.22l-0.14,0.14l-1.44,2.67l-0.15,0.21l-0.14,0.07
	l-0.07,0.22l-2.54,3.67l-0.15,0.15l-0.07,0.14l-0.14,0.22l-2.31,3.09l-0.43,0.36l-3,3.24l-0.36,0.36l-2.31,2l-0.21,0.14l-0.07,0.07
	l-2.67,2l-2.39,1.48l-0.15,0.07l-0.14,0.15l-2.23,1.22l-0.22,0.07l-0.22,0.15l-2.16,1l-0.21,0.08l-0.07,0.07h-0.29l-2.5,0.93
	l-0.22,0.08l-0.29,0.14l-2.37,0.43h-2.18l-0.51,0.51l-0.36-0.22l-0.57,0.65v0.5l-0.72,1.8l-0.07,0.22v0.29l-0.65,0.72l-0.15-0.15
	l-0.21-0.5h-0.15l-0.5,0.72l-0.05,0.07L15.36,71.99z M14.93,60.43h0.21l0.22-0.65v-0.22l0.07-0.21l0.65-3.36l0.07-0.21l0.07-0.15
	l0.08-1l0.07-0.07l-0.22-0.21l-0.14,0.21l-0.58,1.8v0.07l-0.07,0.22l-0.43,2.34V60.43z M15.07,68.99l0.36-0.28v-0.44l0.07-0.14
	l0.08-0.58l-0.08-0.21h-0.21l-0.07,0.07l-0.08,0.14v0.22l-0.14,1v0.14L15.07,68.99z M16.37,60.99l0.36-0.72l1.8-8.49v-0.15
	l-0.07-0.21l-0.08,0.07l-0.21,0.36v0.5l-0.43,0.43l0.07-0.36l-0.07-0.07l-0.22,0.07l-0.07,0.22l-0.51,1.35l-0.14,0.21l-0.07,0.07
	v0.29l-0.43,1.73v0.07l-0.08,0.22l-0.14,0.79l-0.07,0.22v0.28l-0.22,1.23l-0.14,0.21l0.07,0.87h0.22l0.36-1l0.07-0.22v-0.07
	l0.14,0.07v0.15l-0.21,0.57v1.11L16.37,60.99z M18.96,46.89l0.22-0.29l0.07-0.21l0.07-0.29l0.29-0.87v-0.24l-0.22,0.28l-0.36,1.16
	l-0.07,0.21V46.89z M20.18,60.43h0.15l0.36-0.36l0.07-0.36l0.22-1v-0.22l0.07-0.29v-0.14l1.08-4.46v-0.61l1.15-4.68l0.14-0.36
	l1.23-5l0.07-0.22l0.07-0.07l2.38-8.78v-0.36l-0.15,0.21l-0.86,1.73l-0.43,1.37l-0.06,0.16l-0.08,0.14l-0.07,0.22l-1.58,5.68v0.65
	L23,46.85l-0.07,0.22v0.21l-0.07,0.15l-1.44,6.33l-0.15,0.29l-0.14,0.22l-1,5.25L20.18,60.43z M20.98,66.62h0.57l0.22-0.07
	l3.24-0.94l0.36-0.07l0.14-0.15l1.16-0.5l0.15-0.07l3.59-1.83l0.14-0.15l0.22-0.07l0.14-0.14l2.52-1.44l0.24-0.2l0.36-0.21l1.44-1
	l0.14-0.15l0.15-0.07l0.14-0.14l2.09-1.66l0.21-0.14l0.15-0.07l0.14-0.15l1-1.22l0.14-0.07v-0.12l-0.21-0.29l0.57-0.57l0.08-0.22
	h0.07l2.16-2.3l0.29-0.29l0.14-0.22l2.23-2.8l0.07-0.15l0.29-0.36l2.09-3.09l0.14-0.15l0.08-0.21l0.21-0.51l-0.17,0.16l-2.31,3.31
	L45,48.66l-1.72,2.23l-0.22,0.14l-0.14,0.29l-2.25,2.48l-0.14,0.29l-0.07,0.07l-0.29,0.15l-1.77,1.68l-0.07,0.15h-0.15l-0.93,0.5
	l-0.94,0.79l-0.14,0.15l-0.22,0.14l-0.14,0.07l-2.59,1.88L33,59.81l-0.07,0.07l-0.26,0.11l-1.15,0.87L31.45,61v0.07h0.07l2-1.15
	h0.15l0.21-0.14l1.59-1.15l0.43-0.22l1.22-0.86l0.15-0.08v0.15l-0.29,0.29l-1.15,0.93h-0.22l-0.5,0.58h-0.15l-0.28,0.14l-0.22,0.36
	h-0.14l-0.29,0.29l-2.61,1.78l-0.22,0.07l-0.07,0.07l-0.22,0.08l-3.09,1.65l-0.22,0.15h-0.14l-1.23,0.57l-0.21,0.22l-0.29,0.07
	l-3.24,1.15l-0.36,0.15l-1.08,0.36L20.98,66.62z M21.05,59.92l0.5,0.15l0.22-0.08l0.36-0.14l2.3-1.51l0.24-0.15l0.29-0.28l3.52-2.67
	l0.22-0.14l0.29-0.36l0.21-0.22h0.15l0.14-0.21l3.6-3.24l0.22-0.22l0.29-0.22l4.24-4.53l0.15-0.22l0.07-0.07l0.14-0.22l3-4v-0.14
	l0.07-0.15l0.22-0.07l0.5-0.72l0.14-0.29L42.35,40l2.81-5l0.14-0.14l0.22-0.29l1.73-3.82l0.07-0.29v-0.07l0.14-0.29l1-3.09
	l0.14-0.22l0.08-0.14l0.07-0.22l0.43-2.52l0.07-0.14v-0.22l0.07-0.21l0.29-1.8l0.07-0.15v-0.41l-0.01-4v-0.58l-0.5-1.58V14.4
	l-0.07-0.15l-0.43-1.26v-0.3l-0.14-0.29L48.1,11.6l-0.15-0.14l-0.14-0.29l-1.8-2l-0.12-0.19h-0.15l-2.3-1.59H43.3l-0.36-0.21
	l-2.74-1.2l-0.14-0.07h-0.22l-0.17-0.07l-1.66-0.36h-0.34l-0.22,0.07l-2.73,0.07l-0.29,0.15l-0.07,0.14l-0.15,0.36v0.07l0.15,0.36
	v0.08l-0.07,0.14h-0.08l-0.14-0.07L34,6.7l-0.07-0.07h-0.22l-0.07,0.22v0.5l0.07,0.51l0.07,0.14v0.43l-0.11,3.24v0.36l-0.07,0.22
	l-0.22,1.29v0.29l-0.07,0.15v0.21l-0.79,3.31l-0.08,0.29v0.07l-0.07,0.22l-1.22,4l-0.07,0.22L31,22.44l-0.07,0.22l-0.57,1.94
	l-0.08,0.15v0.23l0.15,0.15v0.14l-0.07,0.07l-1.75,4.84l-0.07,0.21l-0.08,0.07l-0.07,0.29l-2.09,7.42l-0.14,0.43l-0.07,0.14
	L24,46.67v0.15l-0.07,0.21l-1,3.89l-0.07,0.22l0.07,0.14l-0.07,0.15l-0.51,2.16v0.21l-0.07,0.07l-0.14,0.29l-1,5L21.05,59.92z
	 M23.93,59.78l0.57-0.22l0.15-0.14l0.72-0.58l0.43-0.14l0.5-0.72l0.15-0.15h0.22l0.36-0.43h-0.07l-0.07,0.07l-0.29,0.15l-0.86,0.72
	l-0.07,0.14l-0.15,0.07l-1.44,0.87l-0.14,0.14L23.93,59.78z M27.31,57.47l0.43-0.5h0.15V56.9l0.21-0.22h-0.21l-0.22,0.07l-0.29,0.15
	l-0.07,0.14l-0.14,0.36L27.31,57.47z M37.54,57.4l0.21-0.36l0.22-0.14l0.21,0.07l-0.07,0.07l-0.43,0.36H37.54z M38.4,56.68v-0.07
	l0.36-0.5h0.14l0.15-0.08l0.07,0.08l-0.5,0.5L38.4,56.68z M43.15,6.35l0.15-0.07l-0.72-0.57l-0.22-0.08l-1.3-0.36h-0.39L40.6,5.42
	l0.07,0.07h0.15l2.16,0.79L43.15,6.35z M44.09,7l0.07-0.14l-0.14,0.07L44.09,7z M52.37,17.8h0.14v-0.14l0.07-0.07v-0.15l-0.07-0.07
	l-0.07-0.22l-0.07-0.07l-0.07,0.07v0.58L52.37,17.8z"/>
<path class="st0" d="M78.76,34.34v0.19l-0.05,0.04l-0.3,0.12l-0.22,0.07l-0.17,0.15l-0.13,0.04l-0.05,0.08v0.11l0.13,0.53
	l-0.04,2.29l-0.09,0.19l-0.6,1.41l-0.05,0.11l-0.04,0.04v0.04h0.17l0.08,0.07l-0.17,0.31l-0.09,0.19l-0.43,0.68l-0.04,0.12
	l-0.08,0.07l-0.05,0.08l-0.56,0.84l-0.09,0.12l-0.04,0.07l-0.08,0.07l-1.73,2.18l-0.09,0.11l-0.04,0.08l-0.13,0.07l-0.35,0.46
	l-0.13,0.11v0.04l-0.08,0.12l-0.86,0.88l-0.08,0.11l-0.17,0.15l-1.12,1.11l-0.05,0.07l-0.08,0.08l-0.13,0.07l-0.82,0.5l-0.08,0.07
	l-0.13,0.04H69.2l-0.08-0.04l-0.04-0.07l-0.04-0.04l0.04-0.11l0.08-0.12l0.26-0.57l0.09-0.07l0.56-0.84l0.09-0.07l0.13-0.19
	l0.65-0.99l0.09-0.19l0.13-0.12l0.39-0.57l0.09-0.19l0.08-0.11l1.37-2.27l0.09-0.08v-0.04l0.04-0.04V41.8l0.08-0.11l0.43-0.73v-0.12
	l0.13-0.19l0.57-1.17l0.08-0.11V39.3l0.08-0.15L75,38.12l0.04-0.15V37.2H75l-0.17-0.04h-0.3l-0.13,0.04l-0.08,0.04l-0.86,0.42
	l-0.13,0.11h-0.07l-0.13,0.08l-0.86,0.57l-0.09,0.07l-0.08,0.04l-0.09,0.08L71.44,39l-0.09,0.07l-0.08,0.04l-0.08,0.12l-1.3,1.14
	l-0.04,0.07l-0.08,0.04l-0.22,0.19l-1.33,1.4l-0.09,0.07l-0.04,0.08l-0.08,0.11l-1.12,1.26l-0.05,0.07l-0.13,0.08l-0.09,0.11
	l-0.95,1.34l-0.08,0.12l-0.09,0.19l-0.69,0.87l-0.13,0.19v0.15l-0.34,0.5l-0.09,0.19l-0.08,0.07l-0.35,0.69l-0.04,0.07l-0.04,0.04
	h-0.04l-0.04-0.02v-0.11l0.04-0.04v-0.07h-0.09l-0.04,0.04l-0.04,0.12l-0.22,0.87l-0.13,0.15v0.19l-0.08,0.46v0.11l0.22,0.19
	l0.04,0.08v0.04l-0.04,0.04v0.07l0.08,0.15h0.17l0.09,0.04l4.2,1.06l0.17,0.07l1.47,0.73l0.13,0.04l0.22,0.12l1.12,0.73l0.09,0.07
	l0.08,0.04l0.17,0.15l0.17,0.07h0.34l0.17,0.04l0.05,0.02l0.13,0.07l0.65,0.73l0.08,0.07v0.08l0.09,0.07l0.34,0.69l0.05,0.11v0.19
	l-0.48,2.18l-0.04,0.07v0.12l-0.04,0.07l-0.47,0.95l-0.09,0.12l-0.08,0.19l-1,1.34l-0.17,0.15l-0.05,0.11l-0.73,0.76l-0.08,0.08
	l-0.05,0.07l-0.08,0.07l-1.2,1.19l-0.08,0.07l-0.08,0.04l-0.09,0.12l-2.03,1.59l-0.09,0.08l-0.04,0.07l-0.13,0.04l-1.34,0.92
	l-0.13,0.07l-0.09,0.04l-0.08,0.07L64.1,66.6l-0.09,0.08l-0.08,0.04l-0.13,0.04l-1.6,0.85l-0.13,0.07h-0.04l-0.13,0.07l-1.08,0.5
	l-0.09,0.07l-0.26,0.12l-0.82,0.34l-0.39,0.07l-0.99,0.34h-0.39l-2.68-0.5l-0.13,0.04h-0.08l-0.13-0.04l-0.6-0.26l-0.13-0.04
	l-0.05-0.08L54,68.21v-0.15l0.08-0.23v-0.12l0.05-0.19l-0.1-0.19l-0.08-0.04l-0.09-0.07l-0.22-0.08l-0.13-0.04l-0.08-0.04l-0.09-0.1
	l-0.26-0.68l0.3-1.22l0.09-0.04l0.04-0.07l0.08-0.04l0.04-0.04l0.04,0.04l0.91-0.23l0.08,0.12l0.04,0.12l0.09,0.07l0.08,0.04h0.26
	l0.04-0.04l0.09,0.04h0.08v0.04l0.09,0.04h0.17l1.03-0.08h0.13l0.08-0.04l0.13-0.07l2.16-0.88l0.08-0.07l0.09-0.04l0.13-0.04
	l1.9-0.99l0.09-0.07l0.22-0.08l1.35-0.78l0.34-0.15l0.6-0.38l0.09-0.07l0.08-0.04l0.13-0.08l0.82-0.53l0.09-0.07l0.13-0.04
	l0.09-0.12l1.42-0.99l0.22-0.23l0.65-0.65l0.05-0.07l0.08-0.07l0.04-0.08l0.43-0.65l0.04-0.12v-0.04l0.05-0.15l0.13-0.57l-0.04-0.11
	l-0.17-0.27l-0.05-0.1l-0.08-0.08l-0.05-0.07l-0.43-0.38l-0.08-0.12l-0.08-0.04l-0.78-0.42l-0.22-0.12l-0.13-0.04l-1.08-0.49
	l-0.08-0.08l-0.22-0.04l-1-0.34l-0.3-0.11l-1.43-0.27l-0.17-0.06l-0.05-0.08v-0.04h0.13l0.82,0.08l0.13-0.04h0.05l0.08-0.04
	l0.04-0.07V53.5l-0.08-0.08h-0.2l-0.09,0.08l-0.08,0.04l-0.04,0.04l-0.13-0.04l-0.6-0.12h-0.25l-0.13-0.04l-0.74-0.23l-0.3-0.12
	h-0.35L60.24,53v0.04l0.08,0.12v0.07h-0.11l-0.13-0.03L60,53.12l-0.95-1.2L59,51.85l-0.08-0.07l-0.04-0.08l-0.22-0.53l-0.05-0.19
	v-0.46l-0.04-0.15l-0.17-0.46v-0.12l-0.04-0.07l-0.08-0.04l-0.09-0.08l-0.04-0.12l-0.04-0.08l-0.08-0.95v-0.3l0.17-1.06l0.05-0.12
	v-0.08l0.52-1.26l0.04-0.11l0.09-0.19l1.03-1.53L60,43.68l0.04-0.03l0.26-0.34l0.09-0.07l0.17-0.19l0.86-1.06l0.13-0.19l0.08-0.11
	l1.2-1.22l1.08-0.95L64,39.4l0.05-0.08l0.13-0.04l1.47-1.18l0.08-0.08l0.22-0.15l1.39-1.03l0.13-0.07l0.09-0.08l0.13-0.04l1.56-1.11
	l0.26-0.07l0.13-0.12l1.2-0.87l0.08-0.08l0.09-0.04l0.13-0.07l0.56-0.31l0.22-0.11l0.17-0.12l1.17-0.48l0.26-0.08h0.13l0.81-0.07
	h0.17l0.04-0.06l0.39-0.1l0.22-0.12l0.13-0.04h0.25l0.04-0.04l0.05,0.04h0.04v0.12h-0.04l-0.05,0.04L75.56,33l-1,0.31l-0.22,0.07
	l-0.13,0.08l-0.35,0.19l-0.13,0.07l-0.08,0.04l-0.13,0.04l0.13,0.15l0.08-0.04l2.9-0.46l0.13-0.04h0.08l0.04,0.04h0.04v0.07
	l-0.03,0.05H76.8l-0.04,0.04l-0.08,0.04h-0.13l-0.08,0.04l-0.13,0.04l-0.17,0.08v0.04l0.13,0.04l0.35,0.04h0.34l1.13-0.04h0.13
	l0.04,0.04l0.09,0.04l0.04,0.08l-0.04,0.07h-0.04l-0.05,0.15v0.04L78.76,34.34z M55.35,68.21v-0.04l-0.04-0.12l-0.39-0.34h-0.17
	l-0.05,0.04l-0.04-0.04l-0.17-0.07l-0.04-0.04v0.07l0.04,0.07l0.13,0.12h0.08l0.05,0.07l0.08,0.04l0.3,0.26h0.1l0.08-0.04H55.35z
	 M65.23,61.27v-0.04h-0.04v-0.04h-0.13l-0.04,0.04l-0.13,0.04l-0.86,0.65l-0.13,0.07H63.8l-0.08,0.08l-1.43,0.84l-0.17,0.07
	l-0.09,0.08l-1.55,0.84l-0.13,0.04l-0.08,0.04l-0.13,0.07l-2.11,0.99l-0.22,0.04l-0.09,0.08l-0.65,0.26h-0.13l-0.05,0.08l-0.08,0.23
	v0.11l0.08,0.08h0.15l0.09-0.04l0.77-0.27l0.17-0.07l0.08-0.08l1.32-0.61l0.13-0.04l0.22-0.12l1.8-0.99l0.13-0.04l0.17-0.15
	l1.85-1.14l0.09-0.04l0.17-0.15l1.03-0.76l0.05-0.04l0.04-0.07L65.23,61.27z M64.03,62.76l0.13-0.07h-0.13v0.05l-0.17,0.04
	l-0.6,0.38l-0.17,0.08l-1.64,0.91l-0.13,0.12l-0.17,0.07l-1.04,0.53l-0.13,0.08l-0.05,0.04l-0.13,0.07l-1.17,0.57h-0.17l-0.05,0.08
	l-0.13,0.07L57.81,66l-0.09,0.08l-0.04,0.07v0.04l-0.05,0.03l-0.17,0.08l-0.04,0.04h-0.04v0.04h0.22l0.52-0.15l0.08-0.04l0.05-0.04
	V66l0.11-0.09l1.39-0.53l0.17-0.08l0.05-0.04l0.13-0.04l1.2-0.65l0.13-0.08h0.04l0.13-0.07l0.3-0.23l0.17-0.08h0.04l0.13-0.11
	l0.6-0.42l0.13-0.04l0.09-0.04l0.13-0.12L64.03,62.76z M61.35,48.45l0.04-0.3L61.35,48v-0.1l-0.04,0.08l-0.09,0.34l-0.04,0.11v0.04
	l-0.04,0.12l-0.04,0.04v0.04l0.04,0.08v0.04l0.08,0.04l0.02-0.02v-0.12L61.35,48.45z M63.58,53.19H63.5l0.08,0.04l1.08,0.38
	l0.13,0.04l0.43,0.15l0.08,0.04l0.22,0.08l0.09,0.07l0.08,0.04l-0.04,0.04v0.04l-0.04,0.04h-0.13l-0.17-0.07l-0.13-0.08l-0.17-0.07
	l-0.13-0.04l-0.52-0.08h-0.17l-0.04-0.04l-0.08-0.04l-0.05-0.08l-0.04-0.04h-0.04l-0.17-0.07h-0.04l-0.08,0.07v0.04l0.08,0.15h0.08
	l0.86,0.19l0.22,0.08l0.78,0.3l0.08,0.08l0.22,0.11l1.08,0.5l0.05,0.04h0.04v-0.04l-0.04-0.08v-0.04h0.15l0.05,0.04l0.08,0.15v0.15
	l0.04,0.04h0.22l0.22,0.12l0.31,0.26l0.17,0.04l0.13,0.08l0.04-0.04v-0.08l-0.13-0.11l-0.91-0.65l-0.13-0.07l-0.09-0.08l-0.08-0.04
	l-0.82-0.57l-0.13-0.04l-0.05-0.07l-0.26-0.23l-0.13-0.04l-0.07-0.07l-0.13-0.08l-0.86-0.34l-0.22-0.08H64.4L63.58,53.19z
	 M70.78,39.12V39h-0.09l-0.08,0.07l-0.47,0.34l-0.09,0.07l-0.22,0.15l-0.86,0.69l-0.04,0.11l-0.22,0.15l-1.04,0.99l-0.17,0.15
	l-0.05,0.07l-0.65,0.73l-0.13,0.12l-0.04,0.07l-0.09,0.08l-0.43,0.53l-0.13,0.15l-0.04,0.04l-0.02,0.13L65.7,44l-0.04,0.11
	l-0.13,0.19l-0.22,0.5l-0.34,0.46l-0.13,0.19l-0.47,0.73l-0.13,0.13v0.07l-0.04,0.08l-0.47,1.18l-0.04,0.07l-0.04,0.18h0.13
	l0.04-0.07l0.05-0.12l0.08-0.26l0.08-0.12v-0.07l0.05-0.12l0.95-1.53l0.08-0.11l0.09-0.19l0.17-0.27l0.08-0.11l0.08-0.15l0.95-1.26
	l0.13-0.11l0.05-0.08l0.08-0.11l0.38-0.61l0.22-0.19l0.08-0.04h0.04V42.3l0.05-0.04v-0.08l0.04-0.07l0.08-0.12l1-0.98l0.17-0.15
	l0.13-0.07l0.78-0.73l0.34-0.26l0.65-0.65L70.78,39.12z M65.94,60.84l-0.04,0.04l0.04,0.04V60.84z M66.33,54.43h-0.26l-0.04-0.03
	v-0.11l0.04-0.04h0.04l0.17,0.07l0.04,0.04L66.33,54.43z M66.64,54.74l-0.09-0.07l-0.04-0.08v-0.04h0.13l0.13,0.12v0.07H66.64z
	 M68.67,58.93l-0.26,0.23l-0.09,0.12v0.15l-0.04,0.07l-0.08,0.04l-0.26,0.34L67.89,60l-0.05,0.08h0.09l0.08-0.11l0.43-0.61
	l0.08-0.04l0.09-0.15l0.13-0.04h0.04l0.05-0.11l0.3-0.46l0.08-0.11v-0.08h0.09l0.13-0.11l0.09-0.04l0.04-0.07l0.26-0.34l0.04-0.15
	v-0.3l-0.04-0.08h-0.04l-0.17,0.15l-0.04,0.12l-0.08,0.15l-0.09,0.3l-0.17,0.19l-0.47,0.69L68.67,58.93z M73.31,33.8l0.17-0.11
	l0.04-0.1l0,0l-0.08-0.04H73.4l-0.09,0.04h-0.07h-0.1l-0.7,0.42l-0.17,0.11h0.17l0.8-0.32H73.31z M77.67,36.24v-0.26l-0.05-0.08
	l-0.04-0.04H77.5l-0.09,0.04v0.34l0.05,0.08l0.04,0.04h0.04L77.67,36.24z"/>
</svg>
