<?xml version="1.0" encoding="utf-8"?>
<!-- Generator: Adobe Illustrator 23.1.0, SVG Export Plug-In . SVG Version: 6.00 Build 0)  -->
<svg version="1.1" xmlns="http://www.w3.org/2000/svg" xmlns:xlink="http://www.w3.org/1999/xlink" x="0px" y="0px"
	 viewBox="0 0 1002 500.16" style="enable-background:new 0 0 1002 500.16;" xml:space="preserve">
<style type="text/css">
	.st0{fill:#190726;}
	.st1{fill:#4C1573;}
	.st2{fill:#2A0C40;}
	.st3{fill:#421263;}
	.st4{fill:#350E4F;}
	.st5{fill:#7E24BF;}
	.st6{fill:#C1F24D;}
	.st7{fill:#AB43F7;}
	.st8{fill:#F743EE;}
	.st9{fill:#FFFFFF;}
	.st10{fill:#BCBEC0;}
	.st11{fill:#6A1EA1;}
	.st12{fill:url(#SVGID_1_);}
	.st13{fill:url(#SVGID_2_);}
	.st14{fill:url(#SVGID_3_);}
	.st15{fill:#F9C793;}
	.st16{fill:#E0A160;}
	.st17{fill:#3A1159;}
	.st18{fill:#FFA8F9;}
	.st19{fill:#9733DE;}
	.st20{fill:url(#SVGID_4_);}
	.st21{fill:url(#SVGID_5_);}
	.st22{fill:url(#SVGID_6_);}
	.st23{fill:url(#SVGID_7_);}
	.st24{fill:url(#SVGID_8_);}
	.st25{fill:url(#SVGID_9_);}
	.st26{fill:url(#SVGID_10_);}
	.st27{fill:url(#SVGID_11_);}
	.st28{fill:url(#SVGID_12_);}
	.st29{fill:url(#SVGID_13_);}
	.st30{fill:url(#SVGID_14_);}
	.st31{fill:url(#SVGID_15_);}
</style>
<g id="BACKGROUND">
</g>
<g id="OBJECTS">
	<g>
		<rect x="0.02" y="243.39" class="st0" width="1001.98" height="256.77"/>
		<g>
			<g>
				<path class="st1" d="M843.93,500.16h-5.34v-42.57c0-10.69-5.56-20.73-15.65-28.29l-22.22-16.64
					c-11.1-8.31-17.22-19.36-17.22-31.12v-93.14h5.34v93.14c0,10.69,5.56,20.73,15.65,28.29l22.22,16.64
					c11.1,8.31,17.22,19.36,17.22,31.12V500.16z"/>
			</g>
			<g>
				<path class="st1" d="M791.92,500.16h-5.34V479c0-5.73,2.98-11.11,8.39-15.16l16.12-12.07c4.4-3.29,6.83-7.67,6.83-12.33V304.26
					h5.34v135.17c0,5.73-2.98,11.11-8.39,15.16l-16.12,12.07c-4.4,3.29-6.83,7.67-6.83,12.33V500.16z"/>
			</g>
			<g>
				<path class="st1" d="M194.32,500.16h-5.34v-18.92c0-6.95-3.62-13.49-10.18-18.4l-12.9-9.65c-7.58-5.67-11.75-13.21-11.75-21.23
					V310.5h5.34v121.46c0,6.95,3.62,13.49,10.18,18.4l12.9,9.65c7.58,5.67,11.75,13.21,11.75,21.23V500.16z"/>
			</g>
			<g>
				<path class="st1" d="M996.92,500h-5.34v-17.65c0-4.93-2.56-9.56-7.22-13.04l-21-15.72c-5.66-4.24-8.78-9.88-8.78-15.87v-74.98
					h5.34v74.98c0,4.93,2.56,9.56,7.22,13.04l21,15.72c5.66,4.24,8.78,9.88,8.78,15.87V500z"/>
			</g>
			<g>
				<path class="st1" d="M92.64,500.16H87.3v-34.59c0-5.96-3.1-11.57-8.73-15.78l-13.8-10.33c-6.64-4.97-10.3-11.58-10.3-18.61
					v-45.03h5.34v45.03c0,5.96,3.1,11.57,8.73,15.78l13.8,10.33c6.64,4.97,10.3,11.58,10.3,18.61V500.16z"/>
			</g>
			<g>
				<path class="st1" d="M21.08,500.16h-5.34v-12.65c0-7.22,3.76-14.01,10.58-19.12c5.81-4.35,9.01-10.13,9.01-16.29v-80.33h5.34
					v80.33c0,7.22-3.76,14.01-10.58,19.12c-5.81,4.35-9.01,10.14-9.01,16.29V500.16z"/>
			</g>
		</g>
		<g>
			<polygon class="st2" points="1002,332.63 859.32,398.95 859.32,300.7 			"/>
			<polygon class="st1" points="859.32,398.95 927.37,398.95 1002,367.56 1002,332.63 			"/>
		</g>
		<g>
			<polygon class="st2" points="0.02,332.63 142.7,398.95 142.7,300.7 			"/>
			<polygon class="st1" points="142.7,398.95 74.65,398.95 0.02,367.56 0.02,332.63 			"/>
		</g>
		<g>
			<rect class="st1" width="1002" height="316.73"/>
			<path class="st3" d="M501.01,182.94c297.23,0,407.39,44.94,500.99,84.88V32.65H0v235.18C93.6,227.89,222.05,182.94,501.01,182.94
				z"/>
			<path class="st4" d="M501.01,146.4c218.18,0,407.39,23.81,500.99,58.63V0H0v205.04C93.6,170.21,282.82,146.4,501.01,146.4z"/>
			<path class="st0" d="M501.01,65.69c218.18,0,407.39,10.68,500.99,26.31V0H0v92C93.6,76.37,282.82,65.69,501.01,65.69z"/>
			<rect y="316.73" class="st5" width="1002" height="15.9"/>
		</g>
		<g>
			<g>
				<g>
					<rect x="387.27" y="112.81" class="st5" width="2.53" height="68.74"/>
				</g>
				<g>
					<path class="st5" d="M388.54,175.36c-2.31,0-4.18,1.4-4.18,3.13v20.64h8.37v-20.64C392.72,176.76,390.85,175.36,388.54,175.36z
						"/>
				</g>
			</g>
			<g>
				<rect x="280.16" y="182.35" class="st2" width="216.76" height="66.26"/>
				<g>
					<polygon class="st6" points="477.93,199.09 477.93,210.92 460.63,210.92 460.63,219.56 489.47,219.56 489.47,210.92 
						489.47,199.09 					"/>
					<rect x="460.63" y="222.76" class="st7" width="28.84" height="8.63"/>
					<rect x="287.61" y="187.25" class="st7" width="11.53" height="8.63"/>
					<rect x="304.92" y="187.25" class="st7" width="11.53" height="8.63"/>
					<rect x="322.22" y="187.25" class="st7" width="11.53" height="8.63"/>
					<rect x="339.52" y="187.25" class="st7" width="11.53" height="8.63"/>
					<rect x="356.82" y="187.25" class="st7" width="11.53" height="8.63"/>
					<rect x="374.12" y="187.25" class="st7" width="11.53" height="8.63"/>
					<rect x="391.42" y="187.25" class="st8" width="11.53" height="8.63"/>
					<rect x="408.73" y="187.25" class="st7" width="11.53" height="8.63"/>
					<rect x="426.03" y="187.25" class="st7" width="11.53" height="8.63"/>
					<rect x="443.33" y="187.25" class="st7" width="11.53" height="8.63"/>
					<rect x="460.63" y="187.25" class="st8" width="11.53" height="8.63"/>
					<rect x="477.93" y="187.25" class="st7" width="11.53" height="8.63"/>
					<rect x="287.61" y="199.09" class="st7" width="11.53" height="8.63"/>
					<rect x="304.92" y="199.09" class="st7" width="11.53" height="8.63"/>
					<rect x="322.22" y="199.09" class="st6" width="11.53" height="8.63"/>
					<rect x="339.52" y="199.09" class="st7" width="11.53" height="8.63"/>
					<rect x="356.82" y="199.09" class="st6" width="11.53" height="8.63"/>
					<rect x="374.12" y="199.09" class="st7" width="11.53" height="8.63"/>
					<rect x="391.42" y="199.09" class="st7" width="11.53" height="8.63"/>
					<rect x="408.73" y="199.09" class="st8" width="11.53" height="8.63"/>
					<rect x="426.03" y="199.09" class="st7" width="11.53" height="8.63"/>
					<rect x="443.33" y="199.09" class="st8" width="11.53" height="8.63"/>
					<rect x="460.63" y="199.09" class="st7" width="11.53" height="8.63"/>
					<rect x="287.61" y="210.92" class="st7" width="28.84" height="8.63"/>
					<rect x="322.22" y="210.92" class="st7" width="11.53" height="8.63"/>
					<rect x="339.52" y="210.92" class="st6" width="11.53" height="8.63"/>
					<rect x="356.82" y="210.92" class="st7" width="11.53" height="8.63"/>
					<rect x="374.12" y="210.92" class="st8" width="11.53" height="8.63"/>
					<rect x="391.42" y="210.92" class="st7" width="11.53" height="8.63"/>
					<rect x="408.73" y="210.92" class="st7" width="11.53" height="8.63"/>
					<rect x="426.03" y="210.92" class="st6" width="11.53" height="8.63"/>
					<rect x="443.33" y="210.92" class="st7" width="11.53" height="8.63"/>
					<rect x="287.61" y="222.76" class="st7" width="28.84" height="8.63"/>
					<rect x="322.22" y="222.76" class="st7" width="11.53" height="8.63"/>
					<rect x="339.52" y="222.76" class="st7" width="11.53" height="8.63"/>
					<rect x="356.82" y="222.76" class="st7" width="11.53" height="8.63"/>
					<rect x="374.12" y="222.76" class="st7" width="11.53" height="8.63"/>
					<rect x="391.42" y="222.76" class="st7" width="11.53" height="8.63"/>
					<rect x="408.73" y="222.76" class="st6" width="11.53" height="8.63"/>
					<rect x="426.03" y="222.76" class="st7" width="11.53" height="8.63"/>
					<rect x="443.33" y="222.76" class="st6" width="11.53" height="8.63"/>
					<rect x="287.61" y="234.6" class="st7" width="11.53" height="8.63"/>
					<rect x="304.92" y="234.6" class="st7" width="11.53" height="8.63"/>
					<rect x="322.22" y="234.6" class="st7" width="11.53" height="8.63"/>
					<rect x="339.52" y="234.6" class="st7" width="11.53" height="8.63"/>
					<rect x="356.82" y="234.6" class="st6" width="63.44" height="8.63"/>
					<rect x="426.03" y="234.6" class="st7" width="11.53" height="8.63"/>
					<rect x="443.33" y="234.6" class="st7" width="11.53" height="8.63"/>
					<rect x="460.63" y="234.6" class="st7" width="11.53" height="8.63"/>
					<rect x="477.93" y="234.6" class="st7" width="11.53" height="8.63"/>
				</g>
			</g>
		</g>
		<g>
			<path class="st2" d="M666.51,189.3c4.85,0,9.15,2.34,10.63,5.8l7.13,16.57c1.44,3.36,1.65,6.96,0.43,10.37
				c-2.02,5.6-7.27,12.82-20.91,12.82c-22.29,0-22.17-13.29-22.17-19.26v-19.45c0-3.78,4.09-6.84,9.14-6.84H666.51z"/>
			<path class="st7" d="M661.73,192.24c-1.54,0.23-2.53,1.35-2.22,2.5l2.28,8.5c0.31,1.15,1.8,1.89,3.34,1.66
				c1.54-0.23,2.53-1.35,2.22-2.5l-2.28-8.5C664.76,192.76,663.27,192.01,661.73,192.24z"/>
			<g>
				<polygon class="st7" points="641.62,208.88 652.91,212.46 652.91,208.99 641.62,205.45 				"/>
				<path class="st6" d="M652.91,215.83l-11.3-3.55v3.31c0,0.04,0,0.08,0,0.12l11.3,3.58V215.83z"/>
				<path class="st7" d="M652.91,226.13v-3.47l-11.2-3.52c0.09,1.14,0.25,2.37,0.57,3.61L652.91,226.13z"/>
			</g>
		</g>
		<g>
			<polygon class="st0" points="907.29,254.41 846.3,300.06 501,300.06 155.7,300.06 94.71,254.41 0,254.41 0,323.64 501,323.64 
				1002,323.64 1002,254.41 			"/>
			<polygon class="st0" points="869.7,273.96 860.83,273.96 831.61,295.83 840.49,295.83 			"/>
			<polygon class="st0" points="170.39,295.83 141.17,273.96 132.3,273.96 161.51,295.83 			"/>
		</g>
		<g>
			<g>
				<g>
					<path class="st5" d="M448.82,117.32v27.28c0,5.18,5.61,9.39,12.54,9.39h79.29c6.93,0,12.54-4.2,12.54-9.39v-27.28H448.82z"/>
					<path class="st5" d="M686.54,14.42h-0.04c-0.33-4.73-5.52-8.83-12.43-8.83H501H327.92c-6.91,0-12.09,4.1-12.43,8.83h-0.02v0.19
						c-0.01,0.17-0.01,0.34,0,0.51v13.5h6.2l38.15,73.51c2.73,5.25,9.48,8.71,17.01,8.71H501h124.17c7.53,0,14.28-3.46,17.01-8.71
						l38.15-73.51h6.22V14.42z"/>
					<path class="st2" d="M501,19.76H327.92c-8.76,0-14.78,6.59-11.61,12.7l43.51,83.84c2.73,5.25,9.48,8.71,17.01,8.71H501h124.17
						c7.53,0,14.28-3.46,17.01-8.71l43.51-83.84c3.17-6.11-2.85-12.7-11.61-12.7H501z"/>
					<path class="st9" d="M376.83,116.32c-2.75,0-5.17-1.24-6.17-3.16l-43.51-83.84c-0.05-0.1-0.16-0.3,0.09-0.58
						c0.25-0.27,0.54-0.27,0.68-0.27h346.15c0.14,0,0.44,0,0.68,0.27c0.25,0.27,0.14,0.48,0.09,0.58l-43.51,83.84
						c-1,1.92-3.42,3.16-6.17,3.16H376.83z"/>
					<path class="st10" d="M674.76,28.74c-0.25-0.27-0.54-0.27-0.68-0.27h-2.39l-42.48,81.86c-1,1.92-3.42,3.16-6.17,3.16H378.97
						c-2.75,0-5.17-1.24-6.17-3.16l-42.48-81.85h-2.39c-0.14,0-0.44,0-0.68,0.27c-0.25,0.27-0.14,0.48-0.09,0.58l43.51,83.84
						c1,1.92,3.42,3.16,6.17,3.16h248.34c2.75,0,5.17-1.24,6.17-3.16l43.51-83.84C674.9,29.21,675.01,29.01,674.76,28.74z"/>
					<path class="st6" d="M588.41,119.59h-7.74c-0.93,0-1.68,0.56-1.68,1.26c0,0.69,0.75,1.26,1.68,1.26h7.74
						c0.93,0,1.68-0.56,1.68-1.26C590.09,120.15,589.34,119.59,588.41,119.59z"/>
					<path class="st5" d="M606.09,119.59h-7.74c-0.93,0-1.68,0.56-1.68,1.26c0,0.69,0.75,1.26,1.68,1.26h7.74
						c0.93,0,1.68-0.56,1.68-1.26C607.76,120.15,607.01,119.59,606.09,119.59z"/>
					<rect x="448.82" y="125.02" class="st11" width="104.37" height="9.45"/>
				</g>
				<g>
					<path class="st5" d="M701.66,132.34l-9.12,19.35c-2.57,5.45,1.34,11.42,8.67,13.24l64.73,16.08
						c7.14,1.77,14.87-1.06,17.37-6.37l9.29-19.71L701.66,132.34z"/>
					<polygon class="st11" points="786.58,167.72 792.6,154.93 701.66,132.34 695.64,145.13 					"/>
					<path class="st5" d="M964,89V76.88c0-4.68-4.09-8.85-10.18-10.38L727.09,9.64c-8.86-2.22-18.57,0.94-22.18,7.21l-48.1,83.48
						c-1.88,3.26-2.85,6.76-2.85,10.3v9.2l154.9,1.72L964,89z"/>
					<g>
						<path class="st2" d="M709.87,27.04l-54.99,88.62c-2.56,4.12,0.32,8.94,6.2,10.41l207.1,51.61c4.42,1.1,9.31-0.04,12.02-2.79
							l81.82-83.07c4.13-4.19,1.5-10.09-5.22-11.73L722.87,22.92C717.73,21.66,712.1,23.45,709.87,27.04z"/>
						<polygon class="st9" points="665.96,118.36 720.08,31.15 951.73,87.75 871.21,169.51 						"/>
						<polygon class="st10" points="948.35,86.92 869.95,166.53 667.4,116.05 665.96,118.36 871.21,169.51 951.73,87.75 						"/>
					</g>
					<path class="st6" d="M830.49,162.33l-7.3-1.86c-0.87-0.22-1.83,0.11-2.14,0.75c-0.31,0.63,0.15,1.33,1.03,1.55l7.3,1.86
						c0.87,0.22,1.83-0.11,2.14-0.75C831.83,163.24,831.37,162.55,830.49,162.33z"/>
					<path class="st5" d="M847.18,166.57l-7.3-1.86c-0.87-0.22-1.83,0.11-2.14,0.75c-0.31,0.63,0.15,1.33,1.03,1.55l7.3,1.86
						c0.87,0.22,1.83-0.11,2.14-0.75C848.51,167.48,848.05,166.79,847.18,166.57z"/>
					<path class="st7" d="M714.04,11.88c-1.47,0.05-2.6,0.99-2.54,2.08l0.37,5.84c0.07,1.1,1.32,1.95,2.79,1.9
						c1.47-0.05,2.6-0.99,2.54-2.08l-0.37-5.84C716.76,12.68,715.51,11.83,714.04,11.88z"/>
				</g>
				<g>
					<path class="st5" d="M300.34,132.34l9.12,19.35c2.57,5.45-1.34,11.42-8.67,13.24l-64.73,16.08
						c-7.14,1.77-14.87-1.06-17.37-6.37l-9.29-19.71L300.34,132.34z"/>
					<polygon class="st11" points="215.42,167.72 209.4,154.93 300.34,132.34 306.36,145.13 					"/>
					<path class="st5" d="M38,89V76.88c0-4.68,4.09-8.85,10.18-10.38L274.91,9.64c8.86-2.22,18.57,0.94,22.18,7.21l48.1,83.48
						c1.88,3.26,2.85,6.76,2.85,10.3v9.2l-154.9,1.72L38,89z"/>
					<g>
						<path class="st2" d="M292.13,27.04l54.99,88.62c2.56,4.12-0.32,8.94-6.2,10.41l-207.1,51.61c-4.42,1.1-9.31-0.04-12.02-2.79
							L39.98,91.81c-4.13-4.19-1.5-10.09,5.22-11.73l233.92-57.16C284.27,21.66,289.9,23.45,292.13,27.04z"/>
						<polygon class="st9" points="336.04,118.36 281.92,31.15 50.27,87.75 130.79,169.51 						"/>
						<polygon class="st10" points="53.65,86.92 132.05,166.53 334.6,116.05 336.04,118.36 130.79,169.51 50.27,87.75 						"/>
					</g>
					<path class="st6" d="M305.94,129.41l-7.31,1.85c-0.87,0.22-1.36,0.92-1.09,1.56c0.27,0.64,1.2,0.99,2.08,0.76l7.31-1.85
						c0.87-0.22,1.36-0.92,1.09-1.56C307.75,129.53,306.82,129.19,305.94,129.41z"/>
					<path class="st5" d="M322.64,125.19l-7.31,1.85c-0.87,0.22-1.36,0.92-1.09,1.56c0.27,0.64,1.2,0.99,2.08,0.76l7.31-1.85
						c0.87-0.22,1.36-0.92,1.09-1.56C324.44,125.31,323.51,124.97,322.64,125.19z"/>
					<path class="st7" d="M287.96,11.88c1.47,0.05,2.6,0.99,2.54,2.08l-0.37,5.84c-0.07,1.1-1.32,1.95-2.79,1.9
						c-1.47-0.05-2.6-0.99-2.54-2.08l0.37-5.84C285.24,12.68,286.49,11.83,287.96,11.88z"/>
				</g>
			</g>
		</g>
		<g>
			<linearGradient id="SVGID_1_" gradientUnits="userSpaceOnUse" x1="833.851" y1="-139.2208" x2="833.851" y2="304.3106">
				<stop  offset="0" style="stop-color:#FFFFFF"/>
				<stop  offset="1" style="stop-color:#FFFFFF;stop-opacity:0"/>
			</linearGradient>
			<polygon class="st12" points="1002,433.3 951.73,87.75 720.08,31.15 665.7,119.59 686.54,453.83 			"/>
			
				<linearGradient id="SVGID_2_" gradientUnits="userSpaceOnUse" x1="-1327.7146" y1="-139.2208" x2="-1327.7146" y2="304.3106" gradientTransform="matrix(-1 0 0 1 -1159.5656 0)">
				<stop  offset="0" style="stop-color:#FFFFFF"/>
				<stop  offset="1" style="stop-color:#FFFFFF;stop-opacity:0"/>
			</linearGradient>
			<polygon class="st13" points="0,433.3 50.27,87.75 281.92,31.15 336.3,119.59 315.46,453.83 			"/>
			<linearGradient id="SVGID_3_" gradientUnits="userSpaceOnUse" x1="506.0182" y1="-143.5597" x2="506.0182" y2="304.9966">
				<stop  offset="0" style="stop-color:#FFFFFF"/>
				<stop  offset="1" style="stop-color:#FFFFFF;stop-opacity:0"/>
			</linearGradient>
			<polygon class="st14" points="735.96,456.21 276.07,456.21 327.24,28.74 674.92,28.74 			"/>
		</g>
		<g>
			<path class="st2" d="M582.7,328.62H419.32v43.39c0,33.77,36.57,61.15,81.69,61.15h0c45.12,0,81.69-27.38,81.69-61.15V328.62z"/>
			<path class="st15" d="M474.31,288.41v40c0,11.03,11.95,19.98,26.69,19.98h0c14.74,0,26.69-8.94,26.69-19.98v-40H474.31z"/>
			<path class="st16" d="M474.31,283.63v40c0,11.03,11.95,19.98,26.69,19.98h0c14.74,0,26.69-8.94,26.69-19.98v-40H474.31z"/>
			<g>
				<g>
					<g>
						<path class="st2" d="M423.8,267.59c-14.69,0-26.6,8.91-26.6,19.91v6.21c0,11,11.91,19.91,26.6,19.91h34.9v-46.03H423.8z"/>
						<rect x="423.8" y="267.59" class="st6" width="4.93" height="46.03"/>
					</g>
					<g>
						<path class="st2" d="M578.2,267.59c14.69,0,26.6,8.91,26.6,19.91v6.21c0,11-11.91,19.91-26.6,19.91h-34.9v-46.03H578.2z"/>
						
							<rect x="573.27" y="267.59" transform="matrix(-1 -1.224647e-16 1.224647e-16 -1 1151.4622 581.2059)" class="st6" width="4.93" height="46.03"/>
					</g>
				</g>
				<g>
					<path class="st0" d="M482.61,215.38c-30.69,0-54.42,20.14-50.59,42.93l5.28,31.38c4.23,25.13,30.25,45.09,63.7,48.87l0,0h0
						c33.45-3.78,59.47-23.74,63.7-48.87l5.28-31.38c3.83-22.79-19.9-42.93-50.59-42.93H482.61z"/>
					<path class="st0" d="M569.91,215.38h-54.08v21.09h54.08c7.78,0,14.09-4.72,14.09-10.55l0,0
						C584,220.1,577.69,215.38,569.91,215.38z"/>
					<path class="st0" d="M545.15,195.16l-38.24,28.62l19.93,14.92l38.24-28.62c5.5-4.12,5.5-10.8,0-14.92v0
						C559.58,191.04,550.66,191.04,545.15,195.16z"/>
				</g>
				<path class="st1" d="M569.21,261.94L569.21,261.94c0-16.51-17.88-29.9-39.94-29.9H501h-28.26c-22.06,0-39.94,13.39-39.94,29.9v0
					c0,0-0.31,15.26,2.41,15.26c0-17.9,19.38-32.41,43.3-32.41H501h22.5c23.91,0,43.3,14.51,43.3,32.41
					C569.52,277.2,569.21,261.94,569.21,261.94z"/>
			</g>
			<g>
				<path class="st15" d="M664.83,245.06l-3.23-1.58c-6.57-3.23-11.44-8.06-13.78-13.67l-5.17-12.42c-0.77-2.01,0.88-4.1,3.6-4.57
					l0,0c2.07-0.35,4.21,0.33,5.29,1.7l9.68,12.23v-28.27c0-2.62,2.84-4.75,6.34-4.75l0,0c3.5,0,6.34,2.12,6.34,4.75v4.91h6.94
					c3.08,0,5.58,1.87,5.58,4.18v2.77h8.2c4.13,0,7.48,2.51,7.48,5.6v15.93c0,4.93-2.17,9.73-6.18,13.65l-7.5,7.33L664.83,245.06z"
					/>
				<path class="st16" d="M681.94,232.57c-10.15-1.73-20.26,1.46-25.89,7.48c1.68,1.28,3.52,2.44,5.54,3.43l3.23,1.59l23.59,7.77
					l7.5-7.33c1.02-0.99,1.91-2.05,2.69-3.14C695.4,237.57,689.47,233.85,681.94,232.57z"/>
				<path class="st2" d="M582.7,328.62l47.92-10.22l20.27-63.97c3.15-9.94,16.41-16.12,29.71-13.84l0,0
					c13.54,2.31,21.91,12.48,18.6,22.57l-23.51,71.65c-3.33,10.14-12.98,18.45-25.93,22.33l-79.37,23.76L582.7,328.62z"/>
				<path class="st17" d="M637.08,320.06c0.07,0.01,0.14,0.01,0.21,0.02c11.12,1.17,12.31,12.89,1.61,15.45l-38.96,9.33
					c-6.64,1.59-13.57-1.93-13.89-7.14c0-0.08-0.01-0.15-0.01-0.23c-0.26-3.66,2.8-7,7.48-8.09l39.04-9.06
					C634.03,320.01,635.57,319.91,637.08,320.06z"/>
			</g>
			<g>
				<path class="st15" d="M337.17,245.06l3.23-1.58c6.57-3.23,11.44-8.06,13.77-13.67l5.17-12.42c0.77-2.01-0.88-4.1-3.6-4.57l0,0
					c-2.07-0.35-4.21,0.33-5.29,1.7l-9.68,12.23v-28.27c0-2.62-2.84-4.75-6.34-4.75l0,0c-3.5,0-6.34,2.12-6.34,4.75v4.91h-6.94
					c-3.08,0-5.58,1.87-5.58,4.18v2.77h-8.2c-4.13,0-7.48,2.51-7.48,5.6v15.93c0,4.93,2.17,9.73,6.18,13.65l7.5,7.33L337.17,245.06z
					"/>
				<path class="st16" d="M320.06,232.57c10.15-1.73,20.26,1.46,25.89,7.48c-1.68,1.28-3.52,2.44-5.54,3.43l-3.23,1.59l-23.59,7.77
					l-7.5-7.33c-1.02-0.99-1.91-2.05-2.69-3.14C306.6,237.57,312.53,233.85,320.06,232.57z"/>
				<path class="st2" d="M419.3,328.62l-47.92-10.22l-20.27-63.97c-3.15-9.94-16.41-16.12-29.71-13.84h0
					c-13.54,2.31-21.91,12.48-18.6,22.57l23.51,71.65c3.33,10.14,12.98,18.45,25.93,22.33l79.37,23.76L419.3,328.62z"/>
				<path class="st17" d="M364.92,320.06c-0.07,0.01-0.14,0.01-0.21,0.02c-11.12,1.17-12.31,12.89-1.61,15.45l38.96,9.33
					c6.64,1.59,13.57-1.93,13.89-7.14c0-0.08,0.01-0.15,0.02-0.23c0.26-3.66-2.8-7-7.48-8.09l-39.04-9.06
					C367.97,320.01,366.43,319.91,364.92,320.06z"/>
			</g>
			<path class="st17" d="M569.8,356.09v-4.02l0,0v-23.45h-31.33v11.32c0,14.75-15.24,27.31-34.93,27.97
				c-0.65,0.02-1.3,0.03-1.96,0.03h0c-0.66,0-1.31-0.01-1.96-0.03c-19.69-0.67-34.93-13.22-34.93-27.97v-11.32h-32.5v23.45v4.02
				c0,0,0,0,0,0c0,17.79-11.87,21.02-12.56,21.19c3.58,31.3,38.63,55.87,81.37,55.87h0c42.74,0,77.79-24.57,81.37-55.87
				C582.03,377.21,569.8,374.15,569.8,356.09z"/>
			<path class="st2" d="M480.84,285.94l-3.44-15.29c-1.55-6.89-10.27-11.54-19.48-10.38c-9.21,1.16-15.42,7.69-13.87,14.58
				l3.44,15.29c1.55,6.89,10.27,11.54,19.48,10.38h0C476.18,299.36,482.39,292.84,480.84,285.94z"/>
			<path class="st2" d="M478.28,310.5c0,3.44-3.73,6.24-8.33,6.24c-4.6,0-8.33-2.79-8.33-6.24c0-3.44,3.73-6.24,8.33-6.24
				C474.55,304.26,478.28,307.06,478.28,310.5z"/>
		</g>
		<path class="st1" d="M156.67,372.99c-3.85,0-6.96,2.33-6.96,5.21v26.5c0,2.88,3.12,5.21,6.96,5.21c3.85,0,6.96-2.33,6.96-5.21
			v-26.5C163.63,375.32,160.51,372.99,156.67,372.99z"/>
		<path class="st1" d="M957.19,398.95c-3.85,0-6.96,2.33-6.96,5.21v26.5c0,2.88,3.12,5.21,6.96,5.21s6.96-2.33,6.96-5.21v-26.5
			C964.16,401.28,961.04,398.95,957.19,398.95z"/>
		<g>
			<path class="st1" d="M781.85,500.16h-0.67v-50.91c0-7.6-3.95-14.74-11.13-20.12l-11.6-8.68c-7.31-5.47-11.33-12.74-11.33-20.47
				v-67.35h0.67v67.35c0,7.6,3.95,14.74,11.13,20.12l11.6,8.68c7.31,5.47,11.33,12.74,11.33,20.47V500.16z"/>
		</g>
		<g>
			<path class="st1" d="M876.68,500.16h-0.67v-50.91c0-7.6-3.95-14.74-11.13-20.12l-11.6-8.68c-7.31-5.47-11.33-12.74-11.33-20.47
				v-67.35h0.67v67.35c0,7.6,3.95,14.74,11.13,20.12l11.6,8.68c7.31,5.47,11.33,12.74,11.33,20.47V500.16z"/>
		</g>
		<g>
			<path class="st1" d="M148.96,500.16h-0.67v-29.2c0-4.8,2.5-9.31,7.03-12.7l23.2-17.36c4.41-3.3,6.83-7.68,6.83-12.35v-95.92h0.67
				v95.92c0,4.8-2.5,9.31-7.03,12.7l-23.2,17.36c-4.41,3.3-6.83,7.68-6.83,12.34V500.16z"/>
		</g>
		<g>
			<g>
				<g>
					<path class="st6" d="M501,121.03c-58.68,0-106.42-16.58-106.42-36.96S442.32,47.11,501,47.11s106.42,16.58,106.42,36.96
						S559.68,121.03,501,121.03z M501,49.11c-57.21,0-103.75,15.68-103.75,34.96s46.54,34.96,103.75,34.96
						c57.21,0,103.75-15.68,103.75-34.96S558.21,49.11,501,49.11z"/>
				</g>
				<g>
					<path class="st18" d="M564.06,67.74c-2.85-0.95-5.92-1.85-9.12-2.66l0.72-1.58c3.27,0.83,6.4,1.74,9.31,2.71L564.06,67.74z"/>
				</g>
				<g>
					<path class="st18" d="M501,118.15c-49.88,0-90.47-13.63-90.47-30.39c0-16.75,40.58-30.39,90.47-30.39
						c9.72,0,19.28,0.51,28.42,1.52l-0.32,1.65c-9.03-0.99-18.48-1.5-28.09-1.5c-48.65,0-88.24,12.88-88.24,28.71
						c0,15.83,39.58,28.71,88.24,28.71s88.24-12.88,88.24-28.71c0-4.93-3.98-9.81-11.52-14.11l1.36-1.33
						c8.11,4.64,12.4,9.98,12.4,15.44C591.47,104.52,550.88,118.15,501,118.15z"/>
				</g>
				<g>
					<path class="st6" d="M501,136.66c-42.33,0-75.49-10.51-75.49-23.92c0-13.41,33.16-23.92,75.49-23.92s75.49,10.51,75.49,23.92
						C576.49,126.15,543.33,136.66,501,136.66z M501,90.72c-40.22,0-72.95,9.88-72.95,22.02c0,12.14,32.72,22.02,72.95,22.02
						c40.22,0,72.95-9.88,72.95-22.02C573.95,100.6,541.22,90.72,501,90.72z"/>
				</g>
				<g>
					<path class="st18" d="M501,134.14c-33.5,0-59.74-7.59-59.74-17.28h1.92c0,8.59,26.48,15.84,57.82,15.84s57.82-7.25,57.82-15.84
						c0-8.59-26.48-15.84-57.82-15.84v-1.44c33.5,0,59.74,7.59,59.74,17.28S534.5,134.14,501,134.14z"/>
				</g>
				<g>
					<path class="st18" d="M501,161.54c-17.72,0-31.6-4.11-31.6-9.35c0-5.24,13.88-9.35,31.6-9.35c17.72,0,31.6,4.1,31.6,9.35
						C532.6,157.44,518.72,161.54,501,161.54z M501,143.6c-16.87,0-30.6,3.86-30.6,8.6c0,4.74,13.73,8.6,30.6,8.6
						s30.6-3.86,30.6-8.6C531.6,147.46,517.87,143.6,501,143.6z"/>
				</g>
			</g>
			<g>
				<polygon class="st8" points="660.95,167.18 640.31,167.18 642.46,164.18 658.56,164.18 725.49,71.43 702.46,69.23 702.97,66.26 
					731.79,69.01 				"/>
				<polyline class="st8" points="725.49,71.43 701.11,69.1 702.97,66.26 				"/>
			</g>
			<g>
				<polygon class="st8" points="341.05,167.18 361.69,167.18 359.54,164.18 343.44,164.18 276.51,71.43 299.54,69.23 299.03,66.26 
					270.21,69.01 				"/>
				<polyline class="st8" points="276.51,71.43 300.89,69.1 299.03,66.26 				"/>
			</g>
		</g>
		<g>
			<g>
				<g>
					<path class="st2" d="M693.26,358.37h-26.52c-7.12,0-12.88,4.45-12.88,9.95V500h52.28V368.32
						C706.15,362.82,700.38,358.37,693.26,358.37z"/>
					<path class="st2" d="M335.27,358.37h-26.52c-7.12,0-12.88,4.45-12.88,9.95V500h52.28V368.32
						C348.15,362.82,342.38,358.37,335.27,358.37z"/>
				</g>
				<path class="st17" d="M667.95,365.14L667.95,365.14c-3.53,0-6.38,2.21-6.38,4.93v56.03c0,2.72,2.86,4.93,6.38,4.93l0,0
					c3.53,0,6.38-2.21,6.38-4.93v-56.03C674.34,367.34,671.48,365.14,667.95,365.14z"/>
				<path class="st17" d="M308.46,365.14L308.46,365.14c-3.53,0-6.38,2.21-6.38,4.93v56.03c0,2.72,2.86,4.93,6.38,4.93l0,0
					c3.53,0,6.38-2.21,6.38-4.93v-56.03C314.84,367.34,311.99,365.14,308.46,365.14z"/>
			</g>
			<g>
				<path class="st5" d="M667.16,500C667.16,500,667.16,500,667.16,500c-3.06-18.11-6.14-36.22-9.23-54.32
					c-3.13-10.64-6.37-21.19-17.4-28.88c-8.14-5.96-13.92-14.6-16.75-24.91c-0.2-0.74-0.3-1.11-0.51-1.85
					c-4.74-18.74-30.86-25.68-52.67-20.88c-23.24,3.76-45.83,5.79-69.59,6.25c-23.74-0.46-46.32-2.49-69.59-6.25
					c-21.09-4.08-48.95,1.65-52.67,20.88c-0.2,0.74-0.31,1.11-0.51,1.85c-2.84,10.31-8.62,18.95-16.75,24.91
					c-11.04,7.69-14.27,18.24-17.4,28.88c-3.09,18.11-6.17,36.21-9.23,54.32c0,0,0,0,0,0H667.16z"/>
				<path class="st19" d="M338.33,500c1.92-11.27,3.84-22.55,5.76-33.82c3.13-10.64,6.63-21.19,17.4-28.88
					c8.13-5.81,13.92-14.6,16.75-24.91c0.2-0.74,0.31-1.11,0.51-1.85c3.71-19.23,31.58-24.96,52.67-20.88
					c23.26,3.76,45.85,5.79,69.59,6.25c23.76-0.46,46.35-2.5,69.59-6.25c21.8-4.8,47.92,2.14,52.67,20.88
					c0.2,0.74,0.3,1.11,0.51,1.85c2.84,10.31,8.63,19.1,16.75,24.91c10.77,7.69,14.27,18.24,17.4,28.88
					c1.93,11.27,3.85,22.55,5.76,33.82h3.47c0,0,0,0,0,0c-3.06-18.11-6.14-36.22-9.23-54.32c-3.13-10.64-6.63-21.19-17.4-28.88
					c-8.13-5.81-13.92-14.6-16.75-24.91c-0.2-0.74-0.3-1.11-0.51-1.85c-4.74-18.74-30.86-25.68-52.67-20.88
					c-23.24,3.76-45.83,5.79-69.59,6.25c-23.74-0.46-46.32-2.49-69.59-6.25c-21.09-4.08-48.95,1.65-52.67,20.88
					c-0.2,0.74-0.31,1.11-0.51,1.85c-2.84,10.31-8.63,19.1-16.75,24.91c-10.77,7.69-14.27,18.24-17.4,28.88
					c-3.09,18.11-6.17,36.21-9.23,54.32c0,0,0,0,0,0H338.33z"/>
				<g>
					<path class="st0" d="M561.76,428.82c-40.74,3.47-80.75,3.47-121.51,0c-8.34-0.81-15.08,3.58-15.08,10.04
						s6.74,12.54,15.08,13.35c40.75,3.47,80.76,3.47,121.51,0c8.34-0.81,15.08-6.89,15.08-13.35S570.1,428,561.76,428.82z"/>
				</g>
			</g>
		</g>
		<g>
			<g>
				<path class="st8" d="M627.96,161.54l14.33-17c0.55-0.65,1.67-1.07,2.89-1.07l0,0c1.49,0,2.45,0.94,1.78,1.74l-13.77,16.33
					H627.96z"/>
			</g>
			<g>
				<path class="st8" d="M618.35,161.54l7.17-8.39c0.55-0.65,1.67-1.07,2.89-1.07l0,0c1.49,0,2.45,0.94,1.78,1.74l-6.6,7.73H618.35z
					"/>
			</g>
			<g>
				<path class="st6" d="M608.73,161.54l14.33-17c0.55-0.65,1.67-1.07,2.89-1.07l0,0c1.49,0,2.45,0.94,1.78,1.74l-13.77,16.33
					H608.73z"/>
			</g>
			<g>
				<path class="st8" d="M600.03,161.54l20.01-23.82c0.55-0.65,1.67-1.07,2.89-1.07l0,0c1.49,0,2.45,0.94,1.78,1.74l-19.45,23.15
					H600.03z"/>
			</g>
			<g>
				<path class="st6" d="M590.41,161.54l11.13-13.11c0.55-0.65,1.67-1.07,2.89-1.07l0,0c1.49,0,2.45,0.94,1.78,1.74l-10.56,12.44
					H590.41z"/>
			</g>
		</g>
	</g>
</g>
<g id="DESIGNED_BY_FREEPIK">
</g>
</svg>
